# xmcd
#
# Track frame offsets:
# 150
# 72027
# 140423
# 193050
# 243379
# 284779
#
# Disc length: 4325 seconds
#
#
# Revision: 0
# Processed by: cddbd v1.5.2PL0 Copyright (c) Steve Scherf et al.
# Submitted via: FreeRIP 2.96 
#
DISCID=5d10e306
DTITLE=Sandra Brown - Ewige Treue CD5v6
DYEAR=2010
DGENRE=Speech
TTITLE0=28 Ewige Treue
TTITLE1=29 Ewige Treue
TTITLE2=30 Ewige Treue
TTITLE3=31 Ewige Treue
TTITLE4=32 Ewige Treue
TTITLE5=33 Ewige Treue
EXTD=gelesen von Hansi Jochmann
EXTT0=
EXTT1=
EXTT2=
EXTT3=
EXTT4=
EXTT5=
PLAYORDER=
